<?xml version="1.0" encoding="utf-8"?>
<!-- Generator: Adobe Illustrator 26.1.0, SVG Export Plug-In . SVG Version: 6.00 Build 0)  -->
<svg version="1.2" baseProfile="tiny" id="Layer_1" xmlns="http://www.w3.org/2000/svg" xmlns:xlink="http://www.w3.org/1999/xlink"
	 x="0px" y="0px" viewBox="0 0 1000 1000" overflow="visible" xml:space="preserve">
<rect x="279.9" y="1096.8" display="none" fill="#ED1C24" stroke="#000000" stroke-miterlimit="10" width="957.2" height="70.5"/>
<path display="none" fill="#ED1C24" stroke="#000000" stroke-miterlimit="10" d="M700.7,1331H463.5c-0.9,11.6-1.4,23.4-1.4,35.2
	s0.5,23.6,1.4,35.2h237.3c-1.9-11.5-2.9-23.2-2.9-35.2S698.8,1342.5,700.7,1331z M1355.1,1331h-237.3c1.9,11.5,2.9,23.2,2.9,35.2
	s-1,23.8-2.9,35.2h237.3c0.9-11.6,1.4-23.4,1.4-35.2S1356,1342.7,1355.1,1331z"/>
<path fill="#FFFFFF" d="M291.5,464.5H54.2C72.2,234,264.9,52.6,500,52.6S927.8,234,945.8,464.5H708.5
	c-16.8-100-103.8-176.2-208.5-176.2S308.2,364.5,291.5,464.5z"/>
<path fill="#FFFFFF" d="M708.5,535.5h237.3C927.8,766,735.1,947.4,500,947.4S72.2,766,54.2,535.5h237.3
	c16.8,100,103.8,176.2,208.5,176.2S691.8,635.5,708.5,535.5z"/>
<circle fill="#FFFFFF" cx="500" cy="500" r="149.5"/>
</svg>
